<?xml version="1.0" encoding="utf-8"?>
<!-- Generator: Adobe Illustrator 27.7.0, SVG Export Plug-In . SVG Version: 6.00 Build 0)  -->
<svg version="1.1" id="TwoTone" xmlns="http://www.w3.org/2000/svg" xmlns:xlink="http://www.w3.org/1999/xlink" x="0px" y="0px"
	 viewBox="0 0 800 800" style="enable-background:new 0 0 800 800;" xml:space="preserve">
<style type="text/css">
	.st0{fill:#FFFBE5;}
	.st1{fill:#E4C6A1;}
	.st2{fill:#D9CDC1;}
	.st3{fill:#42210B;}
</style>
<g id="SVGRepo_bgCarrier">
</g>
<g id="SVGRepo_tracerCarrier">
</g>
<g id="SVGRepo_iconCarrier">
	<g id="Stroke_copy_3">
		<rect x="287.5" y="287.5" class="st0" width="150" height="375"/>
		<rect x="605.5" y="312.5" class="st0" width="150" height="348"/>
		<rect x="287.5" y="425" class="st1" width="150" height="50"/>
		<rect x="437.5" y="212.5" class="st1" width="175" height="450"/>
		<rect x="437.5" y="287.5" class="st0" width="175" height="100"/>
		<rect x="437.5" y="512.5" class="st0" width="175" height="50"/>
		<path class="st2" d="M687.5,525V312.5h-75v350h150V600C721.1,600,687.5,566.4,687.5,525z"/>
		<rect x="612.5" y="375" class="st0" width="150" height="50"/>
		
			<rect x="107" y="478.4" transform="matrix(0.2588 -0.9659 0.9659 0.2588 -351.4117 548.9288)" class="st0" width="150" height="50"/>
		<path class="st1" d="M138.5,569.5l48.3,12.9c13.3,3.6,21.3,17.3,17.7,30.6l-32.4,120.7c-3.6,13.3-17.3,21.3-30.6,17.7l-48.3-12.9
			C79.9,735,72,721.2,75.6,707.9l32.4-120.7C111.5,573.8,125.2,565.9,138.5,569.5z"/>
		<path class="st2" d="M250,37.5C132.6,37.5,37.5,132.6,37.5,250S132.6,462.5,250,462.5S462.5,367.4,462.5,250S367.4,37.5,250,37.5z
			 M250,412.5c-89.7,0-162.5-72.8-162.5-162.5S160.3,87.5,250,87.5S412.5,160.3,412.5,250S339.7,412.5,250,412.5z"/>
		<path class="st0" d="M187.5,400c82.9,34.4,178-4.9,212.4-87.8c20.3-49,15.4-104.9-13.1-149.7H187.5V400z"/>
		<path class="st1" d="M187.5,337.5h199.2c16.8-26.1,25.8-56.5,25.8-87.5c0-4.2,0-8.4,0-12.5h-225V337.5z"/>
	</g>
	<g id="Stroke_Close_copy_3">
		<path class="st3" d="M250,75c-96.6,0.1-174.9,78.5-174.8,175.2c0.1,70.4,42.4,133.9,107.3,161.2l0,0
			c89.1,37.4,191.7-4.6,229.1-93.7S407,126,317.9,88.6C296.4,79.6,273.3,75,250,75z M397.8,225H200v-50h179.8
			C388.7,190.5,394.8,207.4,397.8,225z M100,250c0.2-82.8,67.5-149.8,150.3-149.7c42.4,0.1,82.8,18.1,111.2,49.7h-174
			c-6.9,0-12.5,5.6-12.5,12.5v217.2C128.6,353,100.1,303.5,100,250z M250,400c-17-0.1-33.9-3-50-8.8V350h161.5
			C333.1,381.7,292.6,399.9,250,400z M379.8,325H200v-75h200C400,276.3,393,302.2,379.8,325L379.8,325z"/>
		<path class="st3" d="M387.5,562.5h-50c-6.9,0-12.5,5.6-12.5,12.5s5.6,12.5,12.5,12.5h50c6.9,0,12.5-5.6,12.5-12.5
			S394.4,562.5,387.5,562.5z"/>
		<path class="st3" d="M487.5,350h75c6.9,0,12.5-5.6,12.5-12.5s-5.6-12.5-12.5-12.5h-75c-6.9,0-12.5,5.6-12.5,12.5
			S480.6,350,487.5,350z"/>
		<path class="st3" d="M762.5,300H625v-87.5c0-6.9-5.6-12.5-12.5-12.5H469.2C441.9,78.8,321.5,2.7,200.3,30S2.9,177.8,30.3,299
			c15.5,68.7,62.3,126.2,126.5,155.4l-27.3,102.1c-15.8,1.2-29.2,12.2-33.4,27.5L63.5,704.8c-5.3,20,6.5,40.5,26.5,45.9l48.2,12.5
			c3.2,0.8,6.5,1.3,9.7,1.2c16.7,0.1,31.5-10.8,36.3-26.9l32.2-120.8c4.1-15.3-1.9-31.5-15-40.5l27.4-102c7,0.6,14.1,0.9,21.1,0.8
			c8.4,0,16.7-0.5,25-1.5v189c0,6.9,5.6,12.5,12.5,12.5h475c6.9,0,12.5-5.6,12.5-12.5v-350C775,305.6,769.4,300,762.5,300z
			 M750,412.5H625v-25h125V412.5z M600,375H450v-22.4c8.6-16.7,15.1-34.3,19.2-52.6H600V375z M425,412.5h-19.8
			c7-6.7,13.6-13.9,19.8-21.4V412.5z M374.1,437.5H425v25H323.2C341.2,456.4,358.3,448,374.1,437.5z M450,400h150v100H450V400z
			 M450,525h150v25H450V525z M625,437.5h125V575H625V437.5z M750,325v37.5H625V325H750z M600,225v50H473.5c2-16.6,2-33.4,0-50H600z
			 M192.4,609.9L160,730.6c-1.8,6.6-8.6,10.5-15.2,8.8l-48.2-12.5c-3.2-0.9-6-3-7.6-5.9c-1.7-2.9-2.1-6.3-1.2-9.5l32.4-121
			c0.8-3.2,2.9-5.9,5.8-7.6c2.9-1.7,6.3-2.1,9.5-1.2l48.4,12.5c3.2,0.9,5.9,3,7.5,5.9C192.9,603,193.3,606.6,192.4,609.9z
			 M178,567.1l-24.2-6.4l26.1-97.1c7.9,2.6,15.9,4.9,24,6.6L178,567.1z M50,250c0-110.5,89.5-200,200-200s200,89.5,200,200
			s-89.5,200-200,200S50,360.5,50,250z M300,487.5h125V650H300V487.5z M450,575h150v75H450V575z M625,650v-50h125v50H625z"/>
		<path class="st3" d="M237.5,300H275c6.9,0,12.5-5.6,12.5-12.5S281.9,275,275,275h-37.5c-6.9,0-12.5,5.6-12.5,12.5
			S230.6,300,237.5,300z"/>
		<path class="st3" d="M325,300h37.5c6.9,0,12.5-5.6,12.5-12.5s-5.6-12.5-12.5-12.5H325c-6.9,0-12.5,5.6-12.5,12.5
			S318.1,300,325,300z"/>
	</g>
</g>
</svg>
