<?xml version="1.0" encoding="utf-8"?>
<!-- Generator: Adobe Illustrator 27.7.0, SVG Export Plug-In . SVG Version: 6.00 Build 0)  -->
<svg version="1.1" id="TwoTone" xmlns="http://www.w3.org/2000/svg" xmlns:xlink="http://www.w3.org/1999/xlink" x="0px" y="0px"
	 viewBox="0 0 800 800" style="enable-background:new 0 0 800 800;" xml:space="preserve">
<style type="text/css">
	.st0{fill:#FFFBE5;}
	.st1{fill:#E4C6A1;}
	.st2{fill:#42210B;}
</style>
<path class="st0" d="M650,412.5L235.4,358c-75.8-81.5,394.4-44.5,427.1-41"/>
<path class="st0" d="M375,43h312.5l0,0v75l0,0H375c-20.7,0-162.5-16.8-162.5-37.5L224,50C224,29.3,354.3,43,375,43z"/>
<g id="SVGRepo_bgCarrier">
</g>
<g id="SVGRepo_tracerCarrier">
</g>
<g id="SVGRepo_iconCarrier">
	<g id="Stroke_copy_3">
		<polygon class="st1" points="525,737.5 475,700 425,737.5 425,612.5 525,612.5 		"/>
		<path class="st0" d="M243.1,637.5H625v-75H150c-27.6,0-50,22.4-50,50v100c0,27.6,22.4,50,50,50h475v-50H187.5v-19.4
			C187.5,662.4,212.4,637.5,243.1,637.5L243.1,637.5z"/>
		<path class="st1" d="M175,612.5h450l0,0v100l0,0H175c-13.8,0-25-11.2-25-25v-50C150,623.7,161.2,612.5,175,612.5z"/>
		<polygon class="st0" points="537.5,712.5 487.5,675 437.5,712.5 437.5,612.5 537.5,612.5 		"/>
		<path class="st0" d="M137.5,137.5h400c27.6,0,50,22.4,50,50v75c0,27.6-22.4,50-50,50h-400l0,0V137.5L137.5,137.5z"/>
		<path class="st0" d="M137.5,175H525c6.9,0,12.5,5.6,12.5,12.5v75c0,6.9-5.6,12.5-12.5,12.5H137.5l0,0V175L137.5,175z"/>
		<path class="st1" d="M262.5,312.5h-25c-27.6,0-50,22.4-50,50s22.4,50,50,50h425v-50h-350C284.9,362.5,262.5,340.1,262.5,312.5z"/>
		<path class="st1" d="M250,412.5h-12.5c-41.4,0-75,33.6-75,75s33.6,75,75,75h325v-125H275C261.2,437.5,250,426.3,250,412.5z"/>
		<path class="st0" d="M250,450h312.5l0,0v75l0,0H250c-20.7,0-37.5-16.8-37.5-37.5l0,0C212.5,466.8,229.3,450,250,450z"/>
		<path class="st1" d="M237.5,37.5H175v100h500c13.8,0,25-11.2,25-25v-25H287.5C259.9,87.5,237.5,65.1,237.5,37.5z"/>
		<polygon class="st0" points="337.5,187.5 300,150 262.5,187.5 262.5,87.5 337.5,87.5 		"/>
	</g>
	<g id="Stroke_Close_copy_3">
		<path class="st2" d="M175,600c-6.9,0-12.5,5.6-12.5,12.5S168.1,625,175,625h250v25H175c-6.9,0-12.5,5.6-12.5,12.5
			S168.1,675,175,675h250v37.5c0,6.9,5.6,12.5,12.5,12.5c2.7,0,5.3-0.9,7.5-2.5l42.5-31.9l42.5,31.9c3.8,2.8,8.9,3.3,13.1,1.1
			c4.2-2.1,6.9-6.4,6.9-11.1V675h25c6.9,0,12.5-5.6,12.5-12.5S581.9,650,575,650h-25v-25h25c6.9,0,12.5-5.6,12.5-12.5
			S581.9,600,575,600H175z M525,687.5L495,665c-4.4-3.3-10.6-3.3-15,0l-30,22.5V625h75V687.5z"/>
		<path class="st2" d="M362.5,700H175c-6.9,0-12.5,5.6-12.5,12.5S168.1,725,175,725h187.5c6.9,0,12.5-5.6,12.5-12.5
			S369.4,700,362.5,700z"/>
		<path class="st2" d="M300,350h-50c-6.9,0-12.5,5.6-12.5,12.5S243.1,375,250,375h50c6.9,0,12.5-5.6,12.5-12.5S306.9,350,300,350z"
			/>
		<path class="st2" d="M387.5,350H350c-6.9,0-12.5,5.6-12.5,12.5S343.1,375,350,375h37.5c6.9,0,12.5-5.6,12.5-12.5
			S394.4,350,387.5,350z"/>
		<path class="st2" d="M412.5,237.5H375c-6.9,0-12.5,5.6-12.5,12.5c0,6.9,5.6,12.5,12.5,12.5h37.5c6.9,0,12.5-5.6,12.5-12.5
			C425,243.1,419.4,237.5,412.5,237.5z"/>
		<path class="st2" d="M512.5,237.5h-50c-6.9,0-12.5,5.6-12.5,12.5c0,6.9,5.6,12.5,12.5,12.5h50c6.9,0,12.5-5.6,12.5-12.5
			C525,243.1,519.4,237.5,512.5,237.5z"/>
		<path class="st2" d="M425,100h225c6.9,0,12.5-5.6,12.5-12.5S656.9,75,650,75H425c-6.9,0-12.5,5.6-12.5,12.5S418.1,100,425,100z"/>
		<path class="st2" d="M712.5,112.5v-50c0-20.7-16.8-37.5-37.5-37.5H175c-6.9,0-12.5,5.6-12.5,12.5V125H100
			c-6.9,0-12.5,5.6-12.5,12.5S93.1,150,100,150h25v150h-25c-6.9,0-12.5,5.6-12.5,12.5S93.1,325,100,325h87.5
			c-20.3,26.2-16.1,63.8,9.4,84.9c-42.8,22.4-59.3,75.3-36.9,118.1c4.3,8.2,9.8,15.6,16.4,22H150c-34.5,0-62.5,28-62.5,62.5v100
			c0,34.5,28,62.5,62.5,62.5h475c6.9,0,12.5-5.6,12.5-12.5v-200c0-6.9-5.6-12.5-12.5-12.5h-50V425h125c6.9,0,12.5-5.6,12.5-12.5
			S706.9,400,700,400h-25v-75h25c6.9,0,12.5-5.6,12.5-12.5S706.9,300,700,300H587.5c8.2-10.8,12.6-24,12.5-37.5v-75
			c0.1-13.5-4.3-26.7-12.5-37.5H675C695.7,150,712.5,133.2,712.5,112.5z M187.5,50H675c6.9,0,12.5,5.6,12.5,12.5v50
			c0,6.9-5.6,12.5-12.5,12.5H350v-25h25c6.9,0,12.5-5.6,12.5-12.5S381.9,75,375,75H237.5c-6.9,0-12.5,5.6-12.5,12.5
			s5.6,12.5,12.5,12.5H250v25h-62.5V50z M150,175v-25h100v25H150z M325,150l-15-20c-4.1-5.5-12-6.6-17.5-2.5
			c-0.9,0.7-1.8,1.6-2.5,2.5l-15,20v-50h50V150z M300,158.4l12.5,16.6h-25L300,158.4z M612.5,750H150c-20.7,0-37.5-16.8-37.5-37.5
			v-100c0-20.7,16.8-37.5,37.5-37.5h462.5V750z M550,450H237.5c-6.9,0-12.5,5.6-12.5,12.5s5.6,12.5,12.5,12.5H550v25H237.5
			c-6.9,0-12.5,5.6-12.5,12.5s5.6,12.5,12.5,12.5H550v25H237.5c-34.5,0-62.5-28-62.5-62.5s28-62.5,62.5-62.5H550V450z M650,350
			H437.5c-6.9,0-12.5,5.6-12.5,12.5s5.6,12.5,12.5,12.5H650v25H237.5c-20.7,0-37.5-16.8-37.5-37.5s16.8-37.5,37.5-37.5H650V350z
			 M575,187.5v75c0,20.7-16.8,37.5-37.5,37.5H150v-37.5h175c6.9,0,12.5-5.6,12.5-12.5c0-6.9-5.6-12.5-12.5-12.5H150V200h375
			c6.9,0,12.5-5.6,12.5-12.5S531.9,175,525,175H350v-25h187.5C558.2,150,575,166.8,575,187.5z"/>
	</g>
</g>
<path class="st0" d="M550,425H253.4c0,0,8.4,14.9,28.2,12.5c19.7-2.4,268.5,0,268.5,0V425z"/>
</svg>
