<?xml version="1.0" encoding="utf-8"?>
<!-- Generator: Adobe Illustrator 27.7.0, SVG Export Plug-In . SVG Version: 6.00 Build 0)  -->
<svg version="1.1" id="Layer_1" xmlns="http://www.w3.org/2000/svg" xmlns:xlink="http://www.w3.org/1999/xlink" x="0px" y="0px"
	 viewBox="0 0 800 800" style="enable-background:new 0 0 800 800;" xml:space="preserve">
<style type="text/css">
	.st0{fill:#E4C6A1;}
	.st1{fill:#FFF8EF;}
	.st2{fill:#D9CDC1;}
	.st3{fill:#FFFBE5;}
	.st4{fill:#42210B;}
</style>
<g id="SVGRepo_bgCarrier">
</g>
<g id="SVGRepo_tracerCarrier">
</g>
<g id="SVGRepo_iconCarrier">
	<path class="st0" d="M583.1,562.7H678v-27.1h-94.9V562.7z M718.6,522v67.8H420.3v-27.1h122v-27.1h-122V522H718.6z"/>
	<polygon class="st1" points="718.6,427.1 718.6,494.9 420.3,494.9 420.3,467.8 678,467.8 678,440.7 420.3,440.7 420.3,427.1 
		461,427.1 	"/>
	<polygon class="st0" points="474.6,332.2 772.9,332.2 772.9,400 732.2,400 474.6,400 474.6,372.9 691.5,372.9 691.5,345.8 
		474.6,345.8 	"/>
	<polygon class="st0" points="89.7,175 149.2,175 149.2,457.1 141,457.1 89.7,457.1 89.7,430 93.6,397.3 132.9,402.8 89.7,402.8 	
		"/>
	<rect x="244.1" y="345.8" class="st2" width="94.9" height="176.3"/>
	<path class="st1" d="M325.4,372.9v122c0,8.1-6.8,13.6-13.6,13.6h-40.7c-8.1,0-13.6-6.8-13.6-13.6v-122c0-8.1,6.8-13.6,13.6-13.6
		h40.7C318.6,359.3,325.4,366.1,325.4,372.9z"/>
	<g>
		<rect x="244.1" y="549.2" class="st3" width="94.9" height="40.7"/>
		<rect x="244.1" y="278" class="st3" width="94.9" height="40.7"/>
	</g>
	<path class="st3" d="M149.2,467.8V169.5c0-8.1-5.4-13.6-13.6-13.6H94.9c-8.1,0-13.6,5.4-13.6,13.6v298.3c0,6.8,5.4,13.6,13.6,13.6
		h40.7C143.7,481.4,149.2,474.6,149.2,467.8z M67.8,589.8V47.5h94.9v542.4H67.8z"/>
	<g>
		<polygon class="st3" points="759.3,616.9 759.3,671.2 718.6,671.2 623.7,671.2 162.7,671.2 67.8,671.2 27.1,671.2 27.1,616.9 
			54.2,616.9 176.3,616.9 230.5,616.9 352.5,616.9 406.8,616.9 732.2,616.9 		"/>
		<rect x="81.4" y="698.3" class="st3" width="67.8" height="54.2"/>
		<rect x="637.3" y="698.3" class="st3" width="67.8" height="54.2"/>
	</g>
	<g>
		<rect x="583.1" y="535.6" class="st4" width="94.9" height="27.1"/>
		<path class="st4" d="M122,454.2V183.1h-13.6v271.2H122z M149.2,169.5v298.3c0,6.8-5.4,13.6-13.6,13.6H94.9
			c-8.1,0-13.6-6.8-13.6-13.6V169.5c0-8.1,5.4-13.6,13.6-13.6h40.7C143.7,155.9,149.2,161.4,149.2,169.5z"/>
		<path class="st4" d="M149.2,752.5v-54.2H81.4v54.2H149.2z M339,318.6V278h-94.9v40.7H339z M339,522V345.8h-94.9V522H339z
			 M339,589.8v-40.7h-94.9v40.7H339z M67.8,589.8h94.9V47.5H67.8V589.8z M705.1,752.5v-54.2h-67.8v54.2H705.1z M718.6,494.9v-67.8
			H461h-40.7v13.6H678v27.1H420.3v27.1H718.6z M718.6,589.8V522H420.3v13.6h122v27.1h-122v27.1H718.6z M759.3,671.2v-54.2h-27.1
			H406.8h-54.2h-122h-54.2h-122H27.1v54.2h40.7h94.9h461h94.9H759.3z M772.9,400v-67.8H474.6v13.6h216.9v27.1H474.6V400h257.6H772.9
			z M800,318.6v94.9c0,6.8-6.8,13.6-13.6,13.6h-40.7v81.4v81.4h27.1c6.8,0,13.6,6.8,13.6,13.6v81.4c0,6.8-6.8,13.6-13.6,13.6h-40.7
			v67.8c0,6.8-6.8,13.6-13.6,13.6h-94.9c-6.8,0-13.6-6.8-13.6-13.6v-67.8H176.3v67.8c0,6.8-5.4,13.6-13.6,13.6H67.8
			c-8.1,0-13.6-6.8-13.6-13.6v-67.8H13.6c-6.8,0-13.6-6.8-13.6-13.6v-81.4c0-6.8,6.8-13.6,13.6-13.6h27.1V33.9
			c0-8.1,5.4-13.6,13.6-13.6h122c6.8,0,13.6,5.4,13.6,13.6v555.9h27.1v-54.2V332.2v-67.8c0-6.8,6.8-13.6,13.6-13.6h122
			c6.8,0,13.6,6.8,13.6,13.6v67.8v203.4v54.2h27.1v-81.4v-94.9c0-6.8,6.8-13.6,13.6-13.6h40.7v-81.4c0-6.8,6.8-13.6,13.6-13.6h325.4
			C793.2,305.1,800,311.9,800,318.6z"/>
	</g>
	<path class="st3" d="M40.7,616.9v14.9c0,13.6,12.2,25.8,25.8,25.8h652.2c14.9,0,25.8-12.2,25.8-25.8v-14.9H758v54.2H27.1v-54.2
		H40.7z"/>
</g>
</svg>
